<svg width="2166" height="400" viewBox="0 0 2166 400" fill="none" xmlns="http://www.w3.org/2000/svg">
<g clip-path="url(#clip0_303_62)">
<path d="M8.14954 176.166C11.2702 181.061 14.1461 185.834 17.3281 190.423C74.7244 273.459 151.457 329.57 248.994 356.616C268.575 362.061 288.461 365.672 308.655 368.059C335.027 371.24 361.461 371.913 387.896 370.567C421.427 368.854 454.532 363.898 487.207 356.249C487.39 356.187 487.575 356.249 487.88 356.432C485.739 357.35 483.659 358.33 481.516 359.247C479.375 360.165 477.172 361.083 475.03 361.94C443.517 374.544 410.964 383.54 377.432 389.047C351.671 393.269 325.787 395.227 299.721 394.248C212.402 391.188 138.913 358.145 80.4151 292.795C52.7572 261.894 31.4018 226.954 13.9014 189.505C11.9433 185.284 10.1076 181.061 8.21074 176.839C8.14955 176.779 8.14954 176.594 8.14954 176.166Z" fill="white"/>
<path d="M309.574 0C304.188 4.46688 298.926 9.11733 294.337 14.3797C286.994 22.8851 281.855 32.4308 280.202 43.6286C278.734 53.5414 279.897 63.2706 282.527 72.8774C285.771 84.6872 290.91 95.7014 296.723 106.471C300.517 113.569 303.638 120.912 304.923 128.866C307.309 143.614 302.169 155.056 289.809 163.316C281.181 169.068 271.513 171.944 261.417 173.658C259.948 173.902 258.48 174.086 256.767 174.269C257.134 173.902 257.317 173.719 257.5 173.596C270.35 164.54 274.879 151.936 270.657 136.76C268.699 129.723 265.578 123.237 261.295 117.301C253.646 106.593 247.16 95.273 243.794 82.4231C238.165 60.6394 244.039 42.16 260.132 26.7401C271.268 16.0318 284.608 8.93376 298.865 3.36546C302.353 2.01928 305.901 0.856662 309.574 0Z" fill="white"/>
<path d="M238.958 174.759C240.733 172.006 242.141 169.13 242.63 165.825C243.487 160.624 242.141 155.974 239.326 151.691C236.817 147.775 233.635 144.531 229.841 141.9C224.457 138.106 219.378 134.007 215.217 128.866C209.649 122.074 206.1 114.487 206.345 105.553C206.467 101.147 207.507 96.864 209.281 92.8255C214.36 81.077 223.11 72.4492 233.329 64.984C232.534 66.3913 231.738 67.7376 230.943 69.1449C221.887 84.8707 223.172 99.801 234.247 114.059C238.408 119.443 243.242 124.277 248.26 128.866C251.869 132.171 255.112 135.903 257.315 140.309C260.926 147.468 260.559 154.444 256.03 161.053C251.686 167.294 245.69 171.455 238.958 174.759Z" fill="white"/>
<path d="M0.440054 210.005C8.15001 230.564 18.3688 249.778 30.5456 268.013C73.6847 332.569 132.549 376.014 206.467 399.327C207.018 399.51 207.507 399.694 208.059 400C204.999 399.877 202 399.204 199.002 398.532C152.436 387.945 111.011 367.202 75.5204 335.016C43.0896 305.645 20.4493 269.787 5.82479 228.667C3.68313 222.61 1.66385 216.552 0.0117242 210.372C-0.0494659 209.944 0.134102 209.882 0.440054 210.005Z" fill="white"/>
<path fill-rule="evenodd" clip-rule="evenodd" d="M327.746 195.502H226.339C192.567 195.502 158.734 195.502 124.962 195.624C123.739 195.624 122.515 195.624 121.352 195.809C117.313 196.42 115.417 198.623 115.417 202.661C115.417 220.59 115.417 238.457 115.478 256.326C115.478 265.076 116.885 273.642 119.149 282.087C119.394 283.127 119.944 283.861 120.801 284.473C159.718 313.66 202.551 335.077 249.301 348.661C250.28 348.906 251.137 349.028 252.115 348.845C259.642 347.438 267.046 345.602 274.266 343.154C275.034 342.887 275.803 342.622 276.573 342.358C282.671 340.263 288.774 338.167 294.153 334.527C307.553 325.348 317.833 313.232 325.788 299.159C326.461 297.935 327.196 297.506 328.603 297.506C332.915 297.598 337.192 297.586 341.487 297.575C342.921 297.572 344.357 297.568 345.797 297.568C346.878 297.549 347.954 297.558 349.026 297.567C351.595 297.587 354.142 297.607 356.69 297.261C379.33 294.08 394.076 272.725 388.937 250.452C385.326 234.909 371.864 222.976 355.955 221.325C352.209 220.908 348.434 220.974 344.67 221.038C342.901 221.069 341.134 221.099 339.373 221.08C338.026 221.08 337.72 220.713 337.72 219.367C337.761 215.615 337.747 211.893 337.734 208.16C337.727 206.29 337.72 204.418 337.72 202.539C337.72 199.48 336.435 197.522 333.559 196.359C331.662 195.624 329.704 195.502 327.746 195.502ZM337.66 236.989V248.982C338.148 258.467 336.863 269.237 333.192 279.761C332.764 281.046 333.192 281.23 334.355 281.23C336.873 281.204 339.38 281.211 341.885 281.218C345.223 281.228 348.56 281.239 351.916 281.169C363.542 280.924 373.272 272.174 374.312 261.22C375.475 249.044 368.132 238.642 356.322 236.194C352.405 235.377 348.406 235.487 344.417 235.596C342.423 235.65 340.432 235.704 338.455 235.643C337.581 235.592 337.614 236.145 337.647 236.687C337.653 236.79 337.66 236.892 337.66 236.989Z" fill="#E52129"/>
<path d="M614.634 31.5932C627.013 31.4163 639.216 31.5933 651.596 31.2396C655.132 31.2396 655.309 32.8313 655.309 35.6608C655.309 54.5837 655.309 73.5066 655.309 92.4295C655.309 110.468 655.309 128.507 655.309 147.076C657.609 146.015 658.316 144.069 659.2 142.654C683.428 106.932 707.656 71.2076 731.708 35.3072C733.653 32.4775 735.599 31.0628 739.136 31.2396C750.808 31.5933 762.657 31.4164 774.506 31.4164C774.683 34.246 772.737 35.6608 771.676 37.2524C751.869 66.4326 732.239 95.7896 712.254 124.793C709.602 128.684 709.249 131.336 712.078 135.404C734.008 168.828 755.76 202.43 777.69 236.031C778.75 237.623 779.635 239.038 781.05 241.514C770.792 241.514 761.419 241.514 752.046 241.514C745.856 241.514 738.428 243.282 733.653 240.629C729.055 238.153 726.933 230.902 723.75 225.775C710.84 205.083 697.931 184.391 684.843 163.699C684.666 163.346 684.313 163.17 683.606 162.462C676.354 172.188 669.457 181.915 661.852 191.289C656.901 197.301 654.602 203.491 655.132 211.272C655.84 219.938 655.132 228.604 655.309 237.269C655.487 240.629 654.425 241.691 651.065 241.691C638.862 241.514 626.837 241.691 614.634 241.691C614.634 171.481 614.634 101.625 614.634 31.5932Z" fill="white"/>
<path d="M1714.11 139.118C1710.04 151.851 1706.51 163.17 1702.97 174.488C1696.42 195.356 1689.71 216.047 1683.34 236.915C1682.27 240.276 1681.03 241.513 1677.33 241.513C1669.54 241.16 1661.94 241.337 1654.16 241.513C1651.33 241.513 1650.09 240.983 1649.2 237.977C1634.35 184.215 1619.32 130.629 1604.11 76.8668C1603.04 73.153 1604.28 72.9762 1607.29 72.9762C1617.38 73.153 1627.45 73.3298 1637.71 72.7993C1643.02 72.4457 1644.43 74.5678 1645.49 79.1658C1652.74 111.883 1660.17 144.6 1667.6 177.494C1667.78 178.555 1668.13 179.439 1668.84 181.915C1674.14 163.169 1679.09 146.015 1684.04 128.861C1687.76 115.95 1691.47 103.04 1695.01 90.3074C1696.07 86.5936 1697.48 83.0566 1699.96 79.8734C1707.92 69.7929 1723.31 70.8539 1729.49 82.1724C1735.15 92.7833 1737.1 104.809 1740.46 116.128C1746.47 136.288 1752.13 156.625 1757.97 176.964C1758.32 178.379 1758.32 179.97 1759.91 181.031C1767.7 146.545 1775.65 112.06 1783.26 77.5741C1784.14 73.8604 1785.55 72.9762 1789.09 72.9762C1799.35 73.153 1809.61 73.153 1820.04 72.9762C1823.58 72.9762 1824.82 73.153 1823.58 77.3974C1808.55 130.629 1793.86 184.037 1779.02 237.446C1778.3 240.276 1777.24 241.691 1773.88 241.513C1765.92 241.16 1758.15 241.16 1750.19 241.513C1746.83 241.691 1745.77 240.276 1744.88 237.446C1734.8 205.26 1724.72 173.073 1714.11 139.118Z" fill="white"/>
<path d="M1337.78 158.041C1351.21 137.88 1364.83 117.895 1378.27 97.7345C1381.63 92.7832 1384.99 87.6545 1388.35 82.7027C1389.59 80.9342 1390.83 79.8732 1393.12 79.8732C1406.21 80.05 1419.12 79.8732 1432.2 79.8732C1432.92 82.1723 1431.15 83.0565 1430.26 84.2944C1414.18 106.401 1398.08 128.507 1381.8 150.613C1379.15 154.15 1378.98 156.272 1381.8 159.986C1401.26 185.098 1420.36 210.565 1439.46 235.854C1440.7 237.446 1441.76 239.038 1443.53 241.336C1428.15 241.336 1413.64 241.336 1398.97 241.336C1396.66 241.336 1396.14 239.214 1395.07 237.8C1382.34 220.822 1369.79 203.845 1357.23 187.044C1355.99 185.453 1354.75 183.86 1353.34 181.915C1347.85 189.696 1342.72 197.125 1337.41 204.552C1336.19 206.321 1336.54 208.089 1336.54 209.857C1336.54 218.877 1336.36 227.896 1336.54 236.916C1336.71 240.452 1335.82 241.691 1332.12 241.514C1322.39 241.16 1312.66 241.16 1302.94 241.514C1299.04 241.691 1298.16 240.452 1298.16 236.562C1298.33 192.703 1298.16 148.667 1298.16 104.809C1298.16 78.1046 1298.16 51.5772 1297.98 24.873C1297.98 20.9822 1298.69 19.3906 1303.11 19.5674C1311.95 19.9212 1320.79 19.9212 1329.64 19.5674C1334.95 19.2137 1336.71 20.4517 1336.54 26.2877C1336.19 68.5547 1336.36 110.821 1336.36 153.089C1336.36 154.681 1336.36 156.272 1336.36 157.864C1337.06 157.864 1337.41 158.041 1337.78 158.041Z" fill="white"/>
<path d="M963.735 157.51C963.735 131.16 963.912 104.986 963.557 78.6355C963.557 73.8605 964.973 72.6225 969.394 72.9763C975.23 73.3299 981.239 73.3299 987.083 72.9763C990.791 72.7994 993.269 73.6836 994.508 77.5743C995.747 81.4649 998.039 84.8252 999.278 88.7159C1000.52 92.4297 1002.11 92.9603 1005.65 91.1918C1017.14 85.5325 1029.17 80.7576 1040.49 74.7447C1049.33 69.9698 1057.99 70.6771 1066.3 74.391C1085.05 82.5261 1094.6 97.5583 1096.9 117.543C1097.96 127.446 1097.61 137.349 1097.61 147.253C1097.61 176.787 1097.61 206.498 1097.79 236.031C1097.79 240.453 1096.55 241.514 1092.3 241.337C1083.29 240.984 1074.26 240.984 1065.25 241.337C1060.64 241.514 1059.05 240.629 1059.23 235.502C1059.59 202.607 1059.41 169.713 1059.41 136.642C1059.41 132.575 1059.23 128.507 1058.53 124.617C1056.22 111.706 1044.56 105.34 1032.35 110.292C1023.86 113.828 1015.55 117.543 1006.89 120.726C1003.17 122.141 1002.11 124.086 1002.11 127.977C1002.28 163.877 1002.11 199.778 1002.28 235.502C1002.28 240.1 1001.05 241.337 996.625 241.16C987.61 240.807 978.586 240.807 969.571 241.16C965.15 241.337 963.735 240.276 963.735 235.502C963.912 209.681 963.735 183.684 963.735 157.51Z" fill="white"/>
<path d="M2088.32 155.034C2088.32 182.093 2088.15 209.15 2088.5 236.208C2088.5 240.629 2087.26 241.691 2083.01 241.513C2072.94 241.16 2062.86 241.16 2052.6 241.513C2048.35 241.691 2047.11 240.452 2047.11 236.208C2047.29 182.093 2047.11 128.153 2047.29 74.037C2047.29 69.4389 2046.41 67.8474 2041.45 68.0242C2026.24 68.3779 2010.86 68.0242 1995.65 68.201C1991.94 68.201 1991.05 67.14 1991.05 63.603C1991.23 54.4068 1991.23 45.2106 1991.05 36.0144C1991.05 32.8311 1991.58 31.5932 1995.3 31.5932C2043.93 31.77 2092.39 31.77 2141.02 31.5932C2143.85 31.5932 2144.73 32.3007 2144.73 35.3071C2144.56 44.857 2144.56 54.4068 2144.73 63.9567C2144.73 67.3168 2143.85 68.3778 2140.49 68.201C2124.93 68.0242 2109.19 68.3779 2093.63 68.0242C2089.02 67.8474 2088.32 69.439 2088.32 73.5065C2088.32 100.565 2088.32 127.799 2088.32 155.034Z" fill="white"/>
<path d="M1918.01 135.935C1918.01 102.864 1918.19 69.793 1917.83 36.5453C1917.83 32.124 1919.07 31.0629 1923.32 31.2397C1933.76 31.5935 1944.36 31.4166 1954.8 31.2397C1958.16 31.2397 1959.04 32.1239 1959.04 35.4841C1958.87 102.687 1958.87 169.713 1959.04 236.915C1959.04 240.629 1957.98 241.513 1954.45 241.337C1944.01 241.16 1933.4 240.984 1922.97 241.337C1918.9 241.513 1917.83 240.453 1917.83 236.208C1918.19 202.96 1918.01 169.359 1918.01 135.935Z" fill="white"/>
<path fill-rule="evenodd" clip-rule="evenodd" d="M1212.44 209.974C1214.69 208.771 1216.98 207.554 1219.28 206.321C1219.07 209.968 1218.89 213.536 1218.71 217.038C1218.3 225.257 1217.9 233.119 1217.16 240.807C1216.1 250.887 1210.61 256.192 1200.71 258.138C1192.75 259.552 1184.98 259.022 1177.19 256.9C1171.88 255.485 1168 252.479 1167.46 246.465C1167.11 243.311 1165.38 243.457 1163.28 243.631L1163.22 243.636C1160.92 243.769 1158.62 243.912 1156.32 244.056C1149.42 244.487 1142.53 244.918 1135.63 245.051C1131.21 245.227 1131.03 246.996 1131.39 250.534C1133.34 267.688 1142.89 279.182 1158.8 285.196C1178.43 292.623 1198.77 293.331 1218.93 287.849C1241.03 281.836 1254.3 265.388 1255.72 242.398C1256.24 232.849 1256.24 223.299 1256.24 213.748C1256.33 191.023 1256.33 168.254 1256.33 145.462C1256.33 122.671 1256.33 99.8575 1256.42 77.0437C1256.42 72.6225 1255.53 71.3846 1250.94 71.9152C1245.62 72.6244 1240.38 72.8595 1235.11 73.0959C1232.5 73.2133 1229.88 73.3309 1227.24 73.5068C1217.31 74.2355 1207.38 74.1666 1197.45 74.0976C1188.11 74.0326 1178.76 73.9676 1169.41 74.5679C1145.89 75.9827 1130.68 88.3622 1125.55 111.53C1120.24 136.289 1119.89 161.224 1124.85 185.983C1130.15 212.864 1147.48 227.189 1173.66 228.25C1176.84 228.427 1179.67 227.72 1182.5 226.128C1192.22 220.754 1202.08 215.5 1212.44 209.974ZM1218.19 150.614C1218.2 147.548 1218.22 144.483 1218.22 141.418C1218.22 139.032 1218.21 136.648 1218.2 134.26C1218.17 127.087 1218.14 119.889 1218.4 112.59C1218.4 109.408 1217.51 108.523 1214.33 108.523C1209.28 108.725 1204.22 108.697 1199.17 108.667C1195.39 108.646 1191.59 108.624 1187.8 108.699C1174.54 108.877 1166.59 114.89 1163.22 127.446C1159.69 140.533 1158.98 153.974 1161.28 167.414C1164.28 184.745 1180.56 192.527 1196.12 184.391C1198.18 183.33 1200.24 182.249 1202.3 181.168C1206.43 179.007 1210.56 176.846 1214.68 174.842C1217.16 173.604 1218.22 172.012 1218.22 169.006C1218.11 162.875 1218.15 156.744 1218.19 150.614Z" fill="white"/>
<path fill-rule="evenodd" clip-rule="evenodd" d="M932.61 197.655C935.44 184.745 935.971 171.481 936.501 157.687C936.324 146.545 935.793 134.697 933.495 123.201C928.189 95.0822 912.803 78.6352 886.453 72.976C875.842 70.677 864.877 70.8538 854.089 71.5612C825.086 73.6835 805.632 89.5998 798.912 117.719C792.369 144.954 792.899 172.365 799.265 199.6C804.748 222.414 818.542 237.8 841.887 243.105C855.858 246.289 869.828 246.465 883.977 244.166C911.034 239.922 926.597 223.828 932.61 197.655ZM896.002 186.513C898.302 176.964 898.302 167.237 898.125 157.51C898.302 149.375 898.302 141.24 897.24 133.282C896.002 124.439 893.527 116.304 885.922 110.821C868.061 98.0888 841.356 106.401 836.051 127.622C830.922 147.96 831.098 168.828 836.758 189.166C841.002 204.552 852.143 211.626 867.706 210.919C882.915 210.034 892.465 202.076 896.002 186.513Z" fill="white"/>
<path fill-rule="evenodd" clip-rule="evenodd" d="M1589.07 198.009C1592.08 184.745 1592.62 171.304 1592.97 157.156C1592.79 146.369 1592.44 134.873 1590.14 123.555C1584.83 95.4359 1569.8 78.8121 1543.27 73.1529C1532.3 70.677 1520.99 70.6771 1509.84 71.7382C1480.66 74.3908 1462.45 89.7768 1455.55 118.25C1449 145.484 1449.37 172.896 1455.9 200.131C1461.56 223.475 1476.07 238.684 1500.29 243.636C1513.02 246.111 1525.77 246.465 1538.67 244.52C1566.62 240.453 1582.71 225.42 1589.07 198.009ZM1552.64 186.337C1554.95 176.786 1554.95 167.06 1554.76 157.334C1554.95 149.552 1554.95 141.594 1553.88 133.813C1552.64 124.793 1550.17 116.481 1542.39 110.821C1524.53 97.9122 1497.64 106.401 1492.52 127.622C1487.39 147.96 1487.56 168.828 1493.22 189.166C1497.64 204.376 1508.78 211.626 1524.35 210.741C1539.74 209.858 1549.1 201.722 1552.64 186.337Z" fill="white"/>
<path d="M2144.61 392.403C2142.92 392.403 2141.04 392.403 2139.35 392.403C2130.33 392.403 2130.33 392.403 2127.7 383.949C2126.58 383.385 2126.01 384.324 2125.45 385.077C2116.99 394.095 2101.96 396.724 2091.07 390.9C2084.67 387.518 2081.11 381.882 2080.35 375.118C2078.47 358.021 2079.98 340.736 2079.6 323.638C2079.6 321.572 2080.55 320.82 2082.42 321.008C2082.61 321.008 2082.8 321.008 2082.98 321.008C2098.95 319.693 2098.95 319.693 2098.95 335.475C2098.95 345.057 2098.77 354.639 2098.95 364.221C2099.14 373.428 2102.72 377.936 2109.66 378.5C2117.56 379.064 2123.19 374.743 2124.69 366.1C2126.95 353.136 2125.63 339.985 2125.63 326.833C2125.63 321.948 2126.95 320.256 2131.83 320.82C2136.15 321.384 2140.48 321.008 2144.61 321.195C2144.61 344.681 2144.61 368.543 2144.61 392.403Z" fill="white"/>
<path d="M1632.82 352.009C1640.52 342.427 1648.98 333.972 1656.68 324.954C1659.5 321.759 1662.32 320.069 1666.64 320.444C1671.52 320.82 1676.22 320.444 1682.6 320.444C1676.22 327.584 1670.77 333.596 1665.33 339.796C1661.75 343.742 1655.92 347.688 1655.74 351.821C1655.55 355.955 1661.19 360.276 1664.2 364.597C1670.77 373.615 1677.35 382.446 1684.68 392.216C1677.16 392.216 1670.39 392.216 1663.64 392.216C1661.38 392.216 1660.82 390.337 1659.87 389.021C1654.99 382.257 1650.29 375.306 1645.22 368.543C1643.9 366.851 1643.16 362.906 1640.71 364.409C1637.7 366.1 1633.38 367.603 1633.38 372.676C1633.38 377.936 1633.19 383.197 1633.38 388.458C1633.57 391.464 1632.82 392.403 1629.62 392.403C1613.84 392.78 1613.84 392.967 1613.84 377.561C1613.84 351.069 1614.03 324.39 1613.66 297.899C1613.66 293.578 1614.59 292.262 1619.1 292.262C1633.38 292.45 1633.38 292.262 1633.38 306.353C1633.19 321.572 1633.94 336.603 1632.82 352.009Z" fill="white"/>
<path d="M1790.45 331.153C1798.91 320.257 1808.3 318.19 1819.01 319.505C1829.72 320.819 1837.23 327.396 1838.36 338.105C1840.24 355.202 1838.74 372.488 1839.11 389.585C1839.11 391.651 1838.36 392.404 1836.29 392.215C1835.92 392.215 1835.55 392.215 1835.17 392.215C1819.57 392.966 1819.57 392.966 1819.57 377.185C1819.57 367.79 1819.76 358.397 1819.57 349.002C1819.39 339.609 1816.01 335.099 1809.24 334.535C1800.59 333.971 1795.34 337.917 1793.84 346.936C1791.58 360.087 1792.89 373.427 1792.89 386.579C1792.89 390.9 1791.95 392.591 1787.44 392.027C1782.93 391.464 1776.74 394.094 1773.92 390.9C1771.67 388.27 1773.36 382.258 1773.17 377.748C1773.17 360.464 1773.36 342.99 1772.98 325.704C1772.98 321.008 1774.49 320.257 1778.8 320.068C1785.94 320.068 1791.02 320.819 1790.45 331.153Z" fill="white"/>
<path d="M2038.46 333.032C2044.28 324.201 2051.24 318.941 2061.38 319.129C2065.13 319.316 2067.95 319.692 2066.45 324.577C2066.45 324.765 2066.45 324.953 2066.45 325.141C2066.26 328.898 2067.01 333.219 2065.32 336.039C2063.45 339.42 2058.56 336.79 2055.17 337.541C2045.41 339.608 2040.33 345.245 2040.15 355.39C2039.96 366.099 2039.96 376.808 2040.15 387.518C2040.15 390.9 2039.59 392.215 2035.82 392.215C2020.61 392.403 2020.61 392.403 2020.61 377.372C2020.61 360.274 2020.79 342.99 2020.42 325.893C2020.42 321.008 2021.92 320.069 2026.25 320.256C2035.08 320.82 2035.08 320.444 2038.46 333.032Z" fill="white"/>
<path fill-rule="evenodd" clip-rule="evenodd" d="M1864.88 392.461C1870.78 392.702 1876.58 392.939 1877.44 383.949C1877.99 384.402 1878.45 384.723 1878.83 384.999C1879.25 385.294 1879.6 385.536 1879.89 385.827C1894.73 399.543 1915.77 395.222 1922.54 376.246C1927.42 362.718 1927.42 348.627 1921.97 335.099C1918.03 325.329 1910.89 319.693 1900.17 319.129C1891.54 318.754 1884.39 321.759 1878.76 329.65V307.105C1878.76 299.249 1878.76 295.35 1876.81 293.507C1874.85 291.649 1870.9 291.884 1862.97 292.262C1859.97 292.45 1859.41 293.389 1859.41 296.02C1859.59 326.832 1859.59 357.645 1859.41 388.458C1859.41 391.652 1860.35 392.403 1863.35 392.403C1863.86 392.418 1864.37 392.44 1864.88 392.461ZM1903.56 369.669C1905.62 365.348 1905.81 360.651 1905.81 355.954C1905.81 351.258 1905.62 346.748 1903.37 342.239C1900.93 336.79 1896.79 334.347 1890.78 334.724C1884.95 335.288 1881.2 338.293 1879.89 343.742C1877.63 352.009 1877.81 360.276 1880.07 368.542C1881.76 374.367 1885.71 377.185 1891.72 377.56C1897.73 377.936 1901.3 374.742 1903.56 369.669Z" fill="white"/>
<path fill-rule="evenodd" clip-rule="evenodd" d="M1456.42 334.672C1456.4 338.194 1456.39 341.719 1456.39 345.244C1456.39 347.345 1456.39 349.452 1456.38 351.565C1456.35 360.034 1456.32 368.575 1456.78 376.997C1456.78 378.41 1456.58 379.996 1456.39 381.601C1455.93 385.542 1455.44 389.594 1457.71 391.464C1459.68 393.062 1463.17 392.81 1466.78 392.55C1468.68 392.413 1470.61 392.273 1472.36 392.403C1475.74 392.591 1476.5 391.464 1476.5 388.082C1476.41 383.948 1476.41 379.86 1476.41 375.774C1476.41 371.688 1476.41 367.602 1476.31 363.47C1476.31 359.9 1477.06 358.585 1480.82 358.772C1484.96 358.96 1489.28 358.772 1493.59 358.208C1510.13 356.329 1520.27 345.433 1520.84 329.274C1521.4 312.178 1513.33 302.032 1495.66 299.213C1488.7 298.186 1481.67 298.338 1474.66 298.489C1470.13 298.586 1465.6 298.684 1461.09 298.462C1457.34 298.274 1456.21 299.213 1456.21 303.159C1456.49 313.584 1456.46 324.115 1456.42 334.672ZM1476.07 327.711C1476.1 328.202 1476.13 328.82 1476.13 329.65C1476.55 331.006 1476.3 332.74 1476.04 334.535C1475.62 337.468 1475.18 340.561 1477.63 342.426C1480.82 344.681 1486.65 342.99 1491.16 341.675C1498.3 339.608 1502.05 332.845 1500.55 325.141C1498.86 316.499 1491.72 312.553 1478.95 314.996C1475.02 315.732 1475.5 318.632 1475.99 321.601C1476.25 323.179 1476.51 324.777 1476.13 326.081C1476.01 326.531 1476.03 326.98 1476.07 327.711Z" fill="white"/>
<path fill-rule="evenodd" clip-rule="evenodd" d="M1951.65 392.403C1963.67 395.221 1974.58 393.342 1983.02 382.257C1987.65 392.975 1987.73 392.97 1996.84 392.251L1997.31 392.215C1999.94 392.215 2000.5 391.275 2000.5 388.833C2000.5 384.784 2000.51 380.747 2000.53 376.718C2000.56 364.671 2000.59 352.703 2000.31 340.735C1999.94 330.965 1994.3 323.637 1984.91 320.819C1971.76 316.874 1958.98 318.377 1946.58 323.826C1946.34 323.927 1946.08 324.017 1945.84 324.106C1944.68 324.512 1943.52 324.915 1944.14 326.457C1944.54 327.354 1944.92 328.285 1945.31 329.22C1946.53 332.194 1947.77 335.209 1949.77 337.353C1951.19 338.769 1953.13 337.716 1955.06 336.67C1955.95 336.19 1956.83 335.711 1957.66 335.475C1962.74 333.971 1968 332.844 1973.26 333.596C1978.71 334.347 1982.09 339.044 1981.33 344.681C1980.79 348.715 1978.16 348.217 1975.78 347.763C1974.94 347.604 1974.13 347.45 1973.45 347.499C1973.01 347.527 1972.58 347.554 1972.14 347.582C1963.75 348.108 1955.39 348.633 1947.71 352.384C1939.81 356.517 1936.25 363.657 1937.18 373.99C1938.12 383.572 1943.01 390.336 1951.65 392.403ZM1981.33 366.475C1982.28 359.336 1982.09 358.959 1973.63 359.336C1970.25 359.336 1966.12 359.523 1962.17 361.777C1957.66 364.408 1956.35 368.541 1957.29 373.239C1958.42 378.124 1962.36 379.251 1966.68 379.251C1974.76 379.251 1980.4 374.366 1981.33 366.475Z" fill="white"/>
<path fill-rule="evenodd" clip-rule="evenodd" d="M1593.88 377.907C1593.9 376.51 1593.92 375.085 1593.92 373.615C1591.67 374.554 1589.8 375.306 1588.1 375.682C1580.77 378.124 1573.07 379.816 1565.18 378.313C1558.6 377.185 1554.09 372.3 1552.78 365.912C1552.03 362.343 1552.78 361.027 1556.72 361.215C1563.37 361.34 1570 361.298 1576.64 361.256C1579.96 361.236 1583.28 361.215 1586.59 361.215C1592.73 361.215 1595.83 361.215 1597.28 359.669C1598.77 358.088 1598.53 354.895 1598.06 348.439C1596.74 333.032 1588.85 323.075 1575.51 319.88C1553.53 314.808 1536.24 326.269 1532.86 348.439C1532.12 353.7 1532.12 358.961 1532.86 364.221C1534.55 376.057 1539.82 385.452 1551.28 390.149C1564.42 395.597 1577.58 394.47 1590.73 389.961C1592.8 389.397 1594.11 388.27 1593.92 385.827C1593.8 383.224 1593.84 380.62 1593.88 377.907ZM1563.33 348.021C1564.37 348.042 1565.42 348.063 1566.5 348.063C1567.51 348.063 1568.53 348.041 1569.53 348.021C1571.49 347.979 1573.4 347.939 1575.14 348.063C1579.84 348.627 1580.02 346.184 1579.08 342.802C1577.58 336.603 1572.7 332.845 1566.31 332.845C1559.73 332.845 1555.41 336.227 1553.34 342.614C1552.03 346.373 1552.21 348.627 1557.1 348.063C1559.22 347.939 1561.26 347.979 1563.33 348.021Z" fill="white"/>
<path fill-rule="evenodd" clip-rule="evenodd" d="M1704.21 392.403C1716.42 395.598 1727.51 393.342 1735.96 382.446C1740.67 393.155 1740.67 393.155 1750.62 392.591C1752.69 392.403 1753.62 392.027 1753.62 389.585C1753.56 384.018 1753.54 378.473 1753.52 372.941C1753.48 361.856 1753.44 350.826 1753.06 339.796C1752.88 330.026 1746.86 323.638 1737.47 321.008C1724.51 317.251 1711.91 318.941 1699.71 324.014C1696.89 325.141 1697.07 326.269 1698.2 328.711C1700.36 333.302 1701.39 335.603 1703.12 336.408C1704.86 337.216 1707.3 336.511 1712.29 335.099C1716.99 333.784 1721.88 333.032 1726.76 333.784C1731.84 334.536 1734.66 339.044 1734.27 344.681C1733.86 349.144 1731.16 348.534 1728.8 348.001C1727.98 347.815 1727.2 347.639 1726.57 347.687C1725.79 347.737 1725.01 347.784 1724.23 347.831C1716.15 348.315 1708 348.804 1700.45 352.573C1692.94 356.33 1689.37 363.657 1690.12 373.051C1690.87 383.385 1695.57 390.149 1704.21 392.403ZM1734.27 366.1C1734.66 361.027 1734.27 357.269 1728.45 359.336C1723.56 359.336 1719.62 359.524 1715.68 361.402C1710.98 363.845 1709.28 367.979 1710.23 373.051C1711.17 378.312 1715.49 379.251 1720 379.251C1728.07 379.251 1733.53 373.99 1734.27 366.1Z" fill="white"/>
</g>
<defs>
<clipPath id="clip0_303_62">
<rect width="2165.85" height="400" fill="white"/>
</clipPath>
</defs>
</svg>
