<?xml version="1.0" standalone="no"?>
<!DOCTYPE svg PUBLIC "-//W3C//DTD SVG 20010904//EN"
 "http://www.w3.org/TR/2001/REC-SVG-20010904/DTD/svg10.dtd">
<svg version="1.0" xmlns="http://www.w3.org/2000/svg"
 width="512.000000pt" height="512.000000pt" viewBox="0 0 512.000000 512.000000"
 preserveAspectRatio="xMidYMid meet">
<metadata>
Created by potrace 1.14, written by Peter Selinger 2001-2017
</metadata>
<g transform="translate(0.000000,512.000000) scale(0.100000,-0.100000)"
fill="#000000" stroke="none">
<path d="M3040 4481 c-262 -97 -455 -279 -486 -461 -19 -113 4 -248 63 -365
14 -27 52 -89 84 -137 130 -197 140 -345 30 -458 -54 -57 -50 -59 65 -29 155
40 259 126 288 236 26 97 7 179 -79 353 -92 188 -124 288 -130 411 -8 172 69
328 221 448 15 12 25 23 23 25 -2 2 -38 -8 -79 -23z"/>
<path d="M2452 3936 c-148 -129 -207 -226 -207 -341 0 -117 51 -196 202 -314
89 -69 125 -157 96 -230 -7 -19 -11 -36 -9 -39 3 -2 20 6 38 19 118 80 154
167 109 264 -10 22 -61 84 -113 137 -126 130 -163 200 -162 308 0 63 6 86 32
140 17 35 30 65 29 66 -1 1 -8 -3 -15 -10z"/>
<path d="M540 2965 c0 -16 183 -374 235 -460 27 -44 69 -111 94 -148 25 -38
51 -76 56 -85 6 -10 12 -19 15 -22 3 -3 25 -32 50 -65 116 -155 292 -344 425
-456 22 -19 42 -37 45 -40 5 -5 83 -66 135 -104 174 -129 485 -285 695 -350
139 -42 343 -88 445 -99 37 -4 92 -11 190 -21 96 -11 469 -4 575 10 25 4 67 9
93 11 43 4 280 46 332 58 11 2 52 12 90 21 164 38 453 132 572 186 23 10 47
19 54 19 7 0 10 3 7 6 -3 3 -75 -8 -159 -25 -85 -16 -172 -32 -194 -36 -87
-13 -173 -24 -240 -31 -38 -4 -83 -9 -100 -11 -16 -3 -165 -6 -330 -7 -305 -3
-524 12 -705 49 -14 3 -41 8 -60 11 -179 29 -502 129 -727 225 -323 138 -655
347 -918 579 -65 57 -277 271 -327 330 -26 30 -57 66 -69 80 -42 49 -169 220
-224 301 -30 46 -55 79 -55 74z"/>
<path d="M1528 2822 c-32 -2 -52 -9 -60 -21 -20 -29 -15 -561 6 -661 18 -85 8
-74 186 -194 284 -190 558 -321 870 -417 l95 -30 75 17 c111 24 251 77 306
115 59 40 190 172 199 199 4 11 10 20 13 20 4 0 18 20 32 45 14 25 31 45 40
46 8 1 71 2 140 3 162 3 211 18 293 95 61 56 94 134 101 234 3 40 -21 124 -48
171 -34 58 -110 119 -177 141 -31 11 -87 18 -138 19 l-86 1 -1 70 c-2 120 -3
124 -26 137 -18 9 -225 12 -898 12 -481 1 -896 0 -922 -2z m2071 -377 c53 -35
81 -82 88 -144 9 -84 -22 -143 -101 -191 -34 -20 -53 -24 -140 -25 -56 -1
-104 0 -107 1 -3 2 3 36 13 76 12 48 19 112 20 188 0 63 3 118 5 122 2 4 44 6
92 4 76 -4 95 -8 130 -31z"/>
<path d="M471 2665 c-1 -11 53 -166 87 -252 34 -83 119 -249 174 -337 248
-397 633 -715 1078 -890 104 -40 259 -90 314 -100 11 -2 41 -9 65 -16 64 -17
59 -7 -7 15 -359 119 -746 344 -1006 585 -306 284 -527 595 -694 980 -6 14
-11 20 -11 15z"/>
</g>
</svg>
